#!OML:ASF E:\Style4\Style4.ASF
:FULLY-SPECIFIED
:DEGREES
3588
root 0.480928 18.3083 0.0826662 13.0738 1.80241 0.899909
lowerback 9.08656 1.31513 -1.73712
upperback -1.36812 1.52897 -0.42077
thorax -6.57404 0.806415 0.312529
lowerneck -10.6828 -3.18555 -3.81305
upperneck 6.44187 -4.22433 5.6602
head 3.86455 -1.89019 2.0746
rclavicle -7.15625e-015 8.39865e-015
rhumerus -43.1609 11.78 -96.2113
rradius 50.2713
rwrist 10.9922
rhand 2.26995 -1.04351
rfingers 7.12502
rthumb 27.7627 -29.0133
lclavicle -7.15625e-015 8.39865e-015
lhumerus -50.3862 -15.2455 96.2994
lradius 56.843
lwrist 8.88236
lhand -7.1834 33.8885
lfingers 7.12502
lthumb 18.6944 63.0102
rfemur -14.1543 8.27894 16.3219
rtibia 14.2238
rfoot -12.8058 -19.4538
rtoes -9.22251
lfemur -14.9246 -6.77958 -20.6103
ltibia 14.6419
lfoot -14.3255 14.1016
ltoes -9.98701
3589
root 0.478154 18.3113 0.0570943 13.2386 1.82459 0.869845
lowerback 9.34699 1.32975 -1.67996
upperback -1.37501 1.54725 -0.447814
thorax -6.72793 0.813063 0.243054
lowerneck -10.5593 -3.19582 -3.74609
upperneck 5.63218 -4.21827 5.6828
head 3.597 -1.89475 2.07632
rclavicle -3.24267e-015 9.93923e-016
rhumerus -43.2249 11.7362 -96.2444
rradius 50.4804
rwrist 10.9488
rhand 2.41335 -1.00111
rfingers 7.12502
rthumb 27.8998 -28.9488
lclavicle -3.24267e-015 9.93923e-016
lhumerus -50.478 -15.3214 96.3024
lradius 57.0432
lwrist 8.91475
lhand -7.31519 34.1693
lfingers 7.12502
lthumb 18.5677 63.3032
rfemur -14.4164 8.24215 16.3268
rtibia 14.1858
rfoot -12.625 -19.4626
rtoes -9.28784
lfemur -15.1988 -6.80784 -20.5335
ltibia 14.6056
lfoot -14.1316 14.1759
ltoes -10.0733
3590
root 0.476971 18.3139 0.0353168 13.3939 1.78578 0.892684
lowerback 9.5525 1.36536 -1.69241
upperback -1.36336 1.58588 -0.489597
thorax -6.8328 0.831696 0.195507
lowerneck -10.301 -3.20719 -3.66919
upperneck 4.44079 -4.19347 5.50584
head 3.52791 -1.91627 2.23066
rclavicle -5.09386e-016 5.81445e-015
rhumerus -43.2549 11.7579 -96.282
rradius 50.682
rwrist 10.7835
rhand 2.37181 -0.984508
rfingers 7.12502
rthumb 27.8601 -28.9386
lclavicle -5.09386e-016 5.81445e-015
lhumerus -50.5519 -15.4275 96.3168
lradius 57.2008
lwrist 8.86509
lhand -7.15942 35.065
lfingers 7.12502
lthumb 18.7175 64.1845
rfemur -14.6819 8.1526 16.265
rtibia 14.1808
rfoot -12.4943 -19.3359
rtoes -9.09354
lfemur -15.41 -6.79572 -20.5379
ltibia 14.5279
lfoot -13.8943 14.2546
ltoes -10.3666
3591
root 0.475762 18.3164 0.0188997 13.4779 1.78429 0.940546
lowerback 9.71426 1.37067 -1.74757
upperback -1.29085 1.58212 -0.506601
thorax -6.84914 0.831124 0.206503
lowerneck -10.1277 -3.17382 -3.60611
upperneck 3.60455 -4.12866 5.52535
head 3.19844 -1.89139 2.22638
rclavicle -1.57785e-015 1.08089e-014
rhumerus -43.2665 11.8165 -96.3003
rradius 50.8629
rwrist 10.7299
rhand 2.28502 -0.861926
rfingers 7.12502
rthumb 27.7771 -28.8294
lclavicle -1.57785e-015 1.08089e-014
lhumerus -50.5611 -15.451 96.3293
lradius 57.3241
lwrist 8.77977
lhand -6.90584 35.5858
lfingers 7.12502
lthumb 18.9614 64.6816
rfemur -14.8466 8.09746 16.1925
rtibia 14.1928
rfoot -12.378 -19.2733
rtoes -9.26622
lfemur -15.5164 -6.82519 -20.564
ltibia 14.4342
lfoot -13.8033 14.29
ltoes -10.5703
3592
root 0.470372 18.3209 0.00108746 13.544 1.83365 0.997387
lowerback 9.92751 1.37589 -1.82697
upperback -1.21881 1.5743 -0.516316
thorax -6.89613 0.829697 0.238147
lowerneck -9.87979 -3.15235 -3.62986
upperneck 2.65993 -4.07055 5.62204
head 2.82777 -1.8706 2.26413
rclavicle 4.79568e-015 -4.42296e-015
rhumerus -43.3249 11.8378 -96.3295
rradius 51.0495
rwrist 10.9819
rhand 2.07453 -0.828007
rfingers 7.12502
rthumb 27.5759 -28.8278
lclavicle 4.79568e-015 -4.42296e-015
lhumerus -50.5848 -15.4986 96.3598
lradius 57.5542
lwrist 8.76926
lhand -6.73977 35.7044
lfingers 7.12502
lthumb 19.1211 64.7845
rfemur -14.9775 8.13625 16.1187
rtibia 14.1997
rfoot -12.3973 -19.3259
rtoes -9.09484
lfemur -15.6013 -6.85075 -20.5773
ltibia 14.3043
lfoot -13.621 14.2984
ltoes -10.951
3593
root 0.465209 18.3251 -0.017571 13.6612 1.88975 1.02508
lowerback 10.1148 1.38313 -1.84939
upperback -1.1684 1.5755 -0.538791
thorax -6.94939 0.830403 0.223202
lowerneck -9.66558 -3.15483 -3.64686
upperneck 1.78422 -4.04592 5.71
head 2.49284 -1.86597 2.2961
rclavicle -1.29831e-014 1.00635e-014
rhumerus -43.3622 11.8896 -96.3939
rradius 51.196
rwrist 11.2877
rhand 1.77987 -0.849026
rfingers 7.12502
rthumb 27.294 -28.8935
lclavicle -1.29831e-014 1.00635e-014
lhumerus -50.6079 -15.6224 96.385
lradius 57.8167
lwrist 8.65795
lhand -6.60715 35.9827
lfingers 7.12502
lthumb 19.2486 65.0501
rfemur -15.1451 8.17715 16.0684
rtibia 14.1571
rfoot -12.3761 -19.3876
rtoes -8.8818
lfemur -15.7557 -6.93012 -20.5541
ltibia 14.209
lfoot -13.3982 14.3444
ltoes -11.0762
